<svg xmlns="http://www.w3.org/2000/svg" viewBox="0 0 311.82 158.23"><g id="Layer_2" data-name="Layer 2"><g id="Réteg_1" data-name="Réteg 1"><path d="M55.05,50.75q-7.95-5.47-26.36-5.47H0v56.4L14.6,112.59V59.21H33.5A20.64,20.64,0,0,1,42,60.78a15.38,15.38,0,0,1,5.3,3.65,14.13,14.13,0,0,1,2.82,5.31A26.16,26.16,0,0,1,51.24,75c.11,1.38.17,3.07.17,5.06v32.49H66V79.93Q66,69,64.09,62.27T55.05,50.75Z"/><path d="M304.36,53c-4.94-4.56-12.08-6.87-21.24-6.87H259.47V59h22.95c9.48,0,14.67,4.16,15.79,12.69h-18c-7.55,0-13.93,1.83-18.95,5.43s-7.65,9-7.65,16,2.43,12.34,7.22,16S272,114.48,280,114.48h31.78V72.75C311.82,64.23,309.31,57.59,304.36,53Zm-5.92,48.65h-18c-8.89,0-13.22-2.86-13.22-8.73,0-7.84,10.12-8.45,13.22-8.45h18Z"/><path d="M210.17,93.1Q199.9,76.35,193.7,46.68h-15q5.25,24.79,10.55,37.63a85.9,85.9,0,0,0,21,29.68,85.46,85.46,0,0,0,21-29.68q5.3-12.82,10.54-37.63H226.63Q220.45,76.34,210.17,93.1Z"/><path d="M99.78,90.56A142.65,142.65,0,0,0,80.87,77.1,139.17,139.17,0,0,0,93.46,94.93l12.61,12.81a37.38,37.38,0,0,0,22.47,10.93q-5.7-6.56-11.83-12.67Q108.61,97.9,99.78,90.56Z"/><path d="M122.29,88.43q-9.6-9.59-19.93-18.42a198.68,198.68,0,0,0-21.9-16.45h0a198.68,198.68,0,0,0,16.45,21.9q8.82,10.35,18.42,19.93t19.92,18.43q2.56,2.16,5.16,4.28c1.22-.26,2.43-.57,3.63-.95,1-.32,2-.67,3-1.08q-3.09-3.91-6.29-7.72Q131.92,98,122.29,88.43Z"/><path d="M127.56,70.55Q116.39,59.39,104.48,49a265.49,265.49,0,0,0-25-19.6A267.15,267.15,0,0,0,99,54.42q10.39,11.92,21.58,23.08t23.07,21.59c4.32,3.74,8.71,7.4,13.23,10.93.57-.48,1.13-1,1.67-1.5l.38-.36c.41-.4.8-.81,1.18-1.23-3.55-4.55-7.24-9-11-13.31Q138.76,81.69,127.56,70.55Z"/><path d="M130.24,50.08q-13.4-13.38-27.53-26A379.27,379.27,0,0,0,73.21,0,379.69,379.69,0,0,0,97.26,29.5q12.63,14.16,26,27.53t27.52,26c5.26,4.66,10.6,9.24,16.07,13.69q.48-1.08.9-2.19c.32-.85.6-1.71.85-2.57-4-4.89-8.16-9.67-12.35-14.4Q143.65,63.44,130.24,50.08Z"/><path d="M164.16,61.23q-5.11-5.5-10.44-10.81Q143.31,40,132.15,30.35a233.25,233.25,0,0,0-23.55-18.1h0A231.79,231.79,0,0,0,126.7,35.8Q136.35,47,146.77,57.37t21.56,20.08L170,78.87a36.6,36.6,0,0,0-.94-6.14A37,37,0,0,0,164.16,61.23Z"/><path d="M10.31,147.7v-.27c0-1.61-.54-1.94-3.2-1.94-3.13,0-3.75.33-3.75,2,0,1.06.31,1.54,1.14,1.76a18.64,18.64,0,0,0,3.28.24c2.89.15,3.87.31,4.7.82,1.06.62,1.42,1.48,1.42,3.35s-.31,2.82-1.06,3.46c-1,.86-2.35,1.1-5.94,1.1-3.13,0-4.18-.15-5.32-.73a2.78,2.78,0,0,1-1.37-1.81A9.83,9.83,0,0,1,0,153.44H3.18c0,1.1.08,1.48.36,1.85.41.6.83.66,3.51.66,1.94,0,2.48-.07,3-.4s.62-.84.62-1.85-.26-1.43-1-1.63c-.41-.13-.41-.13-3.28-.29s-3.56-.24-4.44-.6c-1.37-.57-1.91-1.63-1.91-3.66,0-1.74.44-2.82,1.37-3.39s2.4-.88,5.6-.88,4.62.29,5.48,1.1a3.6,3.6,0,0,1,1,2.8v.53H10.31Z"/><path d="M87.28,143.4h8.47c4.16,0,5.58,1.1,5.58,4.38,0,2.93-.59,3.72-3.1,4.14V152c2,.09,2.94,1.08,2.92,2.86v3.19H97.82v-2.64c.05-1.61-.75-2.29-2.58-2.25H90.59v4.89H87.28Zm7.92,7.4a3.45,3.45,0,0,0,2.09-.44c.54-.37.67-.82.67-2.07,0-2.07-.41-2.47-2.53-2.47H90.58v5Z"/><path d="M146.69,143.4l-5.55,14.7h-5l-5.5-14.7H134l3.23,8.33c.26.62.88,2.44,1.37,4h.08c.8-2.47.9-2.78,1.37-4l3.18-8.33Z"/><path d="M180,158.1H176.7V143.4H180Z"/><path d="M225.41,152.85v.51c0,2.2-.26,3-1.19,3.77a5.45,5.45,0,0,1-2.4,1c-.54.07-2.06.13-3.59.13-3,0-3.77-.11-4.91-.66-1.5-.68-2.14-1.79-2.33-3.88-.08-.84-.13-2.64-.13-4,0-3.06.34-4.19,1.5-5.13s2.58-1.3,6.77-1.3c2.74,0,3.82.2,4.7.84a3.4,3.4,0,0,1,1.32,2.38,15.14,15.14,0,0,1,.1,1.81H222c-.05-2.36-.36-2.6-3.31-2.6-2.19,0-3.15.15-3.67.57s-.62.9-.67,2c0,.38,0,.38,0,2.38,0,4.82.23,5.13,3.93,5.13,3.36,0,3.92-.35,3.92-2.34a5.56,5.56,0,0,0,0-.62Z"/><path d="M308.23,147.7v-.27c0-1.61-.54-1.94-3.2-1.94-3.12,0-3.75.33-3.75,2,0,1.06.31,1.54,1.14,1.76a18.49,18.49,0,0,0,3.28.24c2.89.15,3.87.31,4.7.82,1.06.62,1.42,1.48,1.42,3.35s-.31,2.82-1.06,3.46c-1,.86-2.35,1.1-5.94,1.1-3.12,0-4.18-.15-5.32-.73a2.81,2.81,0,0,1-1.37-1.81,9.28,9.28,0,0,1-.21-2.25h3.18c0,1.1.08,1.48.36,1.85.41.6.83.66,3.51.66,1.94,0,2.48-.07,3-.4s.62-.84.62-1.85-.26-1.43-1-1.63c-.41-.13-.41-.13-3.28-.29s-3.56-.24-4.44-.6c-1.37-.57-1.91-1.63-1.91-3.66,0-1.74.44-2.82,1.37-3.39s2.4-.88,5.61-.88,4.62.29,5.47,1.1a3.6,3.6,0,0,1,1,2.8v.53h-3.17Z"/><polygon points="47.9 145.74 52.01 145.74 56.37 145.74 56.37 143.4 44.6 143.4 44.6 145.74 47.9 145.74"/><polygon points="47.9 155.76 47.9 151.62 55.94 151.62 55.94 149.55 52.01 149.55 47.9 149.55 44.6 149.55 44.6 158.1 56.45 158.1 56.45 155.76 47.9 155.76"/><polygon points="264.01 145.74 264.01 145.74 267.77 145.74 267.77 143.4 256 143.4 256 145.74 264.01 145.74"/><polygon points="259.3 155.76 259.3 151.62 267.33 151.62 267.33 149.55 259.3 149.55 259.3 149.55 256 149.55 256 158.1 267.85 158.1 267.85 155.76 259.3 155.76"/></g></g></svg>