<svg xmlns="http://www.w3.org/2000/svg" xmlns:xlink="http://www.w3.org/1999/xlink" viewBox="0 0 410.75 767"><defs><style>.cls-1,.cls-4{fill:none;}.cls-2{fill:#fff;}.cls-3{fill:url(#_10_dpi_10_2);}.cls-4{stroke:#000;stroke-miterlimit:10;stroke-width:16px;}</style><pattern id="_10_dpi_10_2" data-name="10 dpi 10% 2" width="28.8" height="28.8" patternUnits="userSpaceOnUse" viewBox="0 0 28.8 28.8"><rect class="cls-1" width="28.8" height="28.8"/><circle cx="28.8" cy="28.8" r="0.72"/><path d="M14.4,29.52a.72.72,0,1,0-.72-.72A.72.72,0,0,0,14.4,29.52Z"/><path d="M28.8,15.12a.72.72,0,1,0-.72-.72A.72.72,0,0,0,28.8,15.12Z"/><path d="M14.4,15.12a.72.72,0,1,0-.72-.72A.72.72,0,0,0,14.4,15.12Z"/><path d="M7.2,22.32a.72.72,0,1,0-.72-.72A.72.72,0,0,0,7.2,22.32Z"/><path d="M21.6,22.32a.72.72,0,1,0-.72-.72A.72.72,0,0,0,21.6,22.32Z"/><path d="M7.2,7.92a.72.72,0,1,0-.72-.72A.72.72,0,0,0,7.2,7.92Z"/><path d="M21.6,7.92a.72.72,0,1,0-.72-.72A.72.72,0,0,0,21.6,7.92Z"/><circle cy="28.8" r="0.72"/><path d="M0,15.12a.72.72,0,0,0,0-1.44.72.72,0,0,0-.72.72A.72.72,0,0,0,0,15.12Z"/><path d="M28.8.72A.72.72,0,0,0,29.52,0a.72.72,0,0,0-.72-.72.72.72,0,0,0-.72.72A.72.72,0,0,0,28.8.72Z"/><path d="M14.4.72A.72.72,0,0,0,15.12,0a.72.72,0,0,0-.72-.72.72.72,0,0,0-.72.72A.72.72,0,0,0,14.4.72Z"/><path d="M0,.72A.72.72,0,0,0,.72,0,.72.72,0,0,0,0-.72.72.72,0,0,0-.72,0,.72.72,0,0,0,0,.72Z"/></pattern></defs><title>white_angle_with_dots</title><g id="Layer_2" data-name="Layer 2"><g id="things"><path class="cls-2" d="M47.5,403.75C47.5,203.13,210.13,40.5,410.75,40.5V207.75c-108.25,0-196,87.75-196,196,0,.75,0,1.5,0,2.25,1.2,107.22,88.48,193.75,196,193.75V767c-199.87,0-362-161.42-363.24-361C47.5,405.25,47.5,404.5,47.5,403.75Z"/><path class="cls-3" d="M47.5,403.75C47.5,203.13,210.13,40.5,410.75,40.5V207.75c-108.25,0-196,87.75-196,196,0,.75,0,1.5,0,2.25,1.2,107.22,88.48,193.75,196,193.75V767c-199.87,0-362-161.42-363.24-361C47.5,405.25,47.5,404.5,47.5,403.75Z"/><path class="cls-4" d="M8,371.25C8,170.63,170.63,8,371.25,8V175.25c-108.25,0-196,87.75-196,196,0,.75,0,1.5,0,2.25,1.2,107.22,88.48,193.75,196,193.75V734.5c-199.87,0-362-161.42-363.24-361C8,372.75,8,372,8,371.25Z"/></g></g></svg>