<svg width="104" height="104" viewBox="0 0 104 104" fill="none" xmlns="http://www.w3.org/2000/svg">
<path d="M75.2987 0H28.6995C12.8746 0 0 12.8752 0 28.7001V75.2993C0 91.1248 12.8746 103.999 28.6995 103.999H75.2987C91.1248 103.999 103.999 91.1242 103.999 75.2993V28.7001C104 12.8752 91.1248 0 75.2987 0ZM94.7727 75.2993C94.7727 86.0368 86.0368 94.7721 75.2993 94.7721H28.6995C17.9625 94.7727 9.22733 86.0368 9.22733 75.2993V28.7001C9.22733 17.9631 17.9625 9.22733 28.6995 9.22733H75.2987C86.0362 9.22733 94.772 17.9631 94.772 28.7001V75.2993H94.7727Z" fill="#1D1D1D"/>
<path d="M51.9997 25.2029C37.223 25.2029 25.2017 37.2243 25.2017 52.0009C25.2017 66.777 37.223 78.7977 51.9997 78.7977C66.7763 78.7977 78.7977 66.777 78.7977 52.0009C78.7977 37.2243 66.7763 25.2029 51.9997 25.2029ZM51.9997 69.5698C42.3116 69.5698 34.429 61.6884 34.429 52.0003C34.429 42.3116 42.311 34.4296 51.9997 34.4296C61.6884 34.4296 69.5704 42.3116 69.5704 52.0003C69.5704 61.6884 61.6878 69.5698 51.9997 69.5698Z" fill="#1D1D1D"/>
<path d="M79.9216 17.3788C78.1438 17.3788 76.3974 18.0985 75.1419 19.3596C73.8802 20.6145 73.1549 22.3615 73.1549 24.1455C73.1549 25.9239 73.8808 27.6703 75.1419 28.9314C76.3968 30.1863 78.1438 30.9122 79.9216 30.9122C81.7056 30.9122 83.4465 30.1863 84.7075 28.9314C85.9686 27.6703 86.6883 25.9233 86.6883 24.1455C86.6883 22.3615 85.9686 20.6145 84.7075 19.3596C83.4526 18.0985 81.7056 17.3788 79.9216 17.3788Z" fill="#1D1D1D"/>
</svg>
