<svg xmlns="http://www.w3.org/2000/svg" viewBox="0 0 711.46 151.27"><defs><style>.cls-1{fill:#fff;}</style></defs><title>Asset 1</title><g id="Layer_2" data-name="Layer 2"><g id="Layer_1-2" data-name="Layer 1"><path class="cls-1" d="M229.52,72c-6.54,5.55-15.33,5.62-17.79,5.62-3.24,0-13.63-.15-21.18-8.08A19.74,19.74,0,0,1,187.93,66l8.55-5.93c2.39,3.54,6.85,8.17,16.87,8.17a18.63,18.63,0,0,0,4-.39c1.16-.23,6.47-1.69,6.47-6.78a5.47,5.47,0,0,0-1-3.23c-1.85-2.47-6.78-3.16-9.47-3.78l-6.47-1.46a33.23,33.23,0,0,1-8.25-2.54,13.65,13.65,0,0,1-7.78-12.63,16.29,16.29,0,0,1,2.08-8c2.47-4.16,8.4-8.94,19.42-8.94a25.76,25.76,0,0,1,22,11l-8.4,6.23c-1.69-2.69-5.54-8.08-14.09-8.08-.54,0-7.4-.08-9.63,4.16a4.86,4.86,0,0,0-.62,2.46,4.6,4.6,0,0,0,.69,2.47c1.31,2.23,4.32,2.92,9.32,4L217.2,44c5.16,1.16,10.86,2.7,14.48,6.94,1.54,1.69,3.16,4.16,3.16,9.16A14.52,14.52,0,0,1,229.52,72Z"/><path class="cls-1" d="M242.54,31.73V22.41h9.16v9.32Zm0,44.52V37.73h9.16V76.25Z"/><path class="cls-1" d="M310.24,76.25V52.68c0-1.47-.3-7.47-6.47-7.47a8.09,8.09,0,0,0-6.85,3.92c-1.77,2.78-1.85,5.94-1.85,9v18.1H285.9V54.68c0-.85-.07-1.69-.07-2.54a7.2,7.2,0,0,0-2.08-5.39,6.23,6.23,0,0,0-4.16-1.47,7.65,7.65,0,0,0-4.86,1.85c-3.77,3.24-3.85,8.63-3.85,12.94V76.25h-9.24V37.73h9.24l.08,4.32a6.15,6.15,0,0,1,1.23-1.39,17,17,0,0,1,10.86-4.08,12,12,0,0,1,10.71,5.85,13.75,13.75,0,0,1,3.54-3.31,15.1,15.1,0,0,1,8.86-2.54c5.85,0,11.09,2.54,12.71,8.55a25.23,25.23,0,0,1,.54,6.78V76.25Z"/><path class="cls-1" d="M364.93,65.46a18.76,18.76,0,0,1-18,11.94,20.65,20.65,0,0,1-8.71-1.77c-4-1.77-11.32-7.16-11.32-18.79a23.28,23.28,0,0,1,1.69-8.63c1.62-3.85,6.55-11.63,18-11.63a21.07,21.07,0,0,1,8.47,1.77c4.16,1.77,11.32,6.93,11.4,18.49A23.62,23.62,0,0,1,364.93,65.46ZM346.44,44.9a10.29,10.29,0,0,0-5.23,1.46c-2,1.31-4.7,4.47-4.7,10.25a15.06,15.06,0,0,0,.77,5.23c.61,1.85,3.31,7.09,9.63,7.09,7,0,10.16-6.16,9.93-12.25S353.22,44.9,346.44,44.9Z"/><path class="cls-1" d="M398.51,76.25V56.61a23.93,23.93,0,0,0-.38-5.94,6.18,6.18,0,0,0-6.4-5.08,7.37,7.37,0,0,0-4.85,1.77c-2.77,2.31-3.62,5.55-3.62,12.17V76.25h-9.32V37.73h9.32v4.55a17.31,17.31,0,0,1,1.69-2c3.62-3.39,8.86-3.7,10.17-3.7,5.7,0,9,2.93,10.25,4.7,2.46,3.54,2.23,8.39,2.23,12.32V76.25Z"/><path class="cls-1" d="M438.79,71.32c-1.38,4.77-3.38,12.94-7,15.87-2.39,1.92-4.86,2.31-7.86,2.31a21.48,21.48,0,0,1-5.47-.54V81c3.7.46,5.78,0,7.16-1.16A5.55,5.55,0,0,0,427.24,77L413.3,37.73h9.93l8.63,28.74,7.24-28.74h9.48Z"/><path class="cls-1" d="M454.28,31.73V22.41h9.16v9.32Zm0,44.52V37.73h9.16V76.25Z"/><path class="cls-1" d="M530.3,76.25,515.82,50.67,507,60.84V76.25H496.87V21.87H507v25l21.8-24.95H540.7L522.9,42.36l19,33.89Z"/><path class="cls-1" d="M569.66,76.25l-.23-3a12.94,12.94,0,0,1-3.55,2.16,17.91,17.91,0,0,1-7.78,1.77c-1.85,0-8.78-.23-12.32-5.93a10.91,10.91,0,0,1-1.7-6.16,11.22,11.22,0,0,1,5.24-9.63c3.16-2.16,6.16-2.62,9.71-3.31a73.16,73.16,0,0,0,10.63-2.62,7.45,7.45,0,0,0-.54-3.16c-.77-1.46-2.7-2.62-6.09-2.62s-5.78,1.08-6.78,2.39a5.07,5.07,0,0,0-1,3.39L545.86,49A11.58,11.58,0,0,1,550,40.12c2.39-2,6-3.54,12.71-3.54,6.32,0,10,1.31,12.41,3a9.17,9.17,0,0,1,2.77,3.08c1,2,1,4.7,1,6.86V70c0,2.93.15,3.77,1.69,6.24Zm0-19.18a23.92,23.92,0,0,1-7.32,2.15c-2.08.39-4.31.47-6.24,1.62a4.54,4.54,0,0,0-2.23,3.85c0,2.31,1.69,4.55,6.31,4.55,5.09,0,8.09-2.62,8.94-4.39a7.24,7.24,0,0,0,.54-3.55Zm-3.78-25H559l3.85-10.24h11.4Z"/><path class="cls-1" d="M598.39,53.45a19.2,19.2,0,0,0-.7,6.31V76.25h-8.93V37.73h8.93V43.2A12,12,0,0,1,600,40.05c3.08-3,8.09-3.16,9.17-3.16h.77v9.47C608,46.36,600.62,46.36,598.39,53.45Z"/><path class="cls-1" d="M651.84,65.46a18.76,18.76,0,0,1-18,11.94,20.65,20.65,0,0,1-8.71-1.77c-4-1.77-11.32-7.16-11.32-18.79a23.49,23.49,0,0,1,1.69-8.63c1.62-3.85,6.55-11.63,18-11.63A21.07,21.07,0,0,1,642,38.35c4.16,1.77,11.32,6.93,11.4,18.49A23.62,23.62,0,0,1,651.84,65.46ZM633.35,44.9a10.29,10.29,0,0,0-5.23,1.46c-2,1.31-4.7,4.47-4.7,10.25a15.06,15.06,0,0,0,.77,5.23c.61,1.85,3.31,7.09,9.63,7.09,7,0,10.16-6.16,9.93-12.25S640.13,44.9,633.35,44.9Z"/><path class="cls-1" d="M661,76.25V21.87h9.4V76.25Z"/><path class="cls-1" d="M701.67,71.32c-1.38,4.77-3.38,12.94-7,15.87-2.38,1.92-4.85,2.31-7.85,2.31a21.48,21.48,0,0,1-5.47-.54V81c3.7.46,5.78,0,7.16-1.16A5.55,5.55,0,0,0,690.12,77L676.18,37.73h9.93l8.63,28.74L702,37.73h9.48Z"/><path class="cls-1" d="M210,127c-3.28,2.77-7.68,2.81-8.91,2.81-1.62,0-6.83-.07-10.61-4a10.06,10.06,0,0,1-1.32-1.77l4.29-3c1.19,1.78,3.43,4.09,8.45,4.09a9.68,9.68,0,0,0,2-.19c.57-.11,3.24-.85,3.24-3.39a2.78,2.78,0,0,0-.5-1.62c-.93-1.24-3.4-1.59-4.75-1.9l-3.24-.73a16.8,16.8,0,0,1-4.13-1.27,6.83,6.83,0,0,1-3.9-6.33,8.22,8.22,0,0,1,1-4c1.24-2.08,4.21-4.47,9.73-4.47a12.93,12.93,0,0,1,11,5.52l-4.21,3.12a7.91,7.91,0,0,0-7.06-4c-.27,0-3.71,0-4.83,2.09A2.44,2.44,0,0,0,196,109a2.29,2.29,0,0,0,.35,1.23c.66,1.12,2.16,1.47,4.67,2l2.82.62c2.58.58,5.44,1.35,7.25,3.47a6.21,6.21,0,0,1,1.59,4.59A7.32,7.32,0,0,1,210,127Z"/><path class="cls-1" d="M232,129.07V124.9l14.89-18.52H233.23v-4.56h20v4.33l-14.31,18.33h14.31v4.59Z"/><path class="cls-1" d="M290.46,129.07l-1.58-5.33H278.65l-1.58,5.33h-5.48l9.22-27.25h5.79l9.3,27.25Zm-6.68-22.35L280,119.27h7.53Z"/><path class="cls-1" d="M333.14,129.07l-7.25-12.81-4.44,5.09v7.72h-5.06V101.82h5.06v12.51l10.92-12.51h6l-8.91,10.27,9.53,17Z"/><path class="cls-1" d="M375.9,129.07l-7.26-12.81-4.43,5.09v7.72h-5.06V101.82h5.06v12.51l10.92-12.51h6l-8.92,10.27,9.53,17Z"/><path class="cls-1" d="M423,125.86a12,12,0,0,1-4.63,3.13,13.62,13.62,0,0,1-4.74.77,11.49,11.49,0,0,1-9.34-4.2,14.67,14.67,0,0,1-3.63-10.08,16.78,16.78,0,0,1,.81-5.28,12.72,12.72,0,0,1,12.27-9.07,12.58,12.58,0,0,1,9.65,4.32,14.54,14.54,0,0,1,3.4,10A15.37,15.37,0,0,1,423,125.86Zm-3-16.47a7.1,7.1,0,0,0-6.33-3.59,7.78,7.78,0,0,0-3.47.81c-1.93,1-4.32,3.59-4.32,8.68,0,1,0,6.06,3.86,8.57a7.35,7.35,0,0,0,4,1.16,7.49,7.49,0,0,0,3.13-.66c2-.93,4.63-3.24,4.74-8.37A12,12,0,0,0,420,109.39Z"/><path class="cls-1" d="M448.75,129.07V101.82h5.14v22.62h10.8v4.63Z"/><path class="cls-1" d="M485.88,129.07V101.82H491v22.62h10.8v4.63Z"/><path class="cls-1" d="M522.85,129.07V101.82h19.37v4.56H527.86v6.4H541v4.4H527.86v7.3h15.32v4.59Zm10.34-29.91h-3.44l2-4.63h5.56Z"/><path class="cls-1" d="M583,129.07l0-2.32a10.2,10.2,0,0,1-7.49,3,12.2,12.2,0,0,1-8.72-3.43,14.65,14.65,0,0,1-4-10.61,16.06,16.06,0,0,1,3.2-9.84,12.67,12.67,0,0,1,10-4.75,13.11,13.11,0,0,1,4.48.81,12.05,12.05,0,0,1,7,7.22l-4.87,1.93c-.46-1.32-1.89-5.37-6.63-5.37a6.88,6.88,0,0,0-4.91,2c-1.31,1.35-2.7,3.66-2.7,7.87,0,1.12,0,5.21,3.13,7.83a6.84,6.84,0,0,0,4.59,1.55,6.33,6.33,0,0,0,6.14-3.86,8.81,8.81,0,0,0,.58-2.43h-6.8v-4.48h11.47v14.9Z"/><path class="cls-1" d="M610,129.07V101.82h5v27.25Z"/><path class="cls-1" d="M659.8,123.51c-.89,2.74-4,6.25-10.69,6.25-3.2,0-6.41-.77-8.64-3.24a7.89,7.89,0,0,1-1.74-2.93c-.43-1.39-.43-2.66-.43-5.56V101.82h5.14v16.75a8.65,8.65,0,0,0,.27,3c.5,1.62,2,3.24,5.59,3.24.66,0,4.4,0,5.52-3.08a9.64,9.64,0,0,0,.35-3.44V101.82h5.09v15.71C660.26,120.66,660.3,122,659.8,123.51Z"/><path class="cls-1" d="M703.67,129.07l.51-22.38-5.91,22.38h-4.59l-5.9-22.38.5,22.38h-5V101.82h7.41L696,122l5.25-20.22h7.37v27.25Z"/><path class="cls-1" d="M75.64,8.1A67.54,67.54,0,1,1,8.1,75.64,67.54,67.54,0,0,1,75.64,8.1m0-8.1a75.64,75.64,0,1,0,75.63,75.64A75.72,75.72,0,0,0,75.64,0Z"/><path class="cls-1" d="M141.28,57.76H66.45a3.9,3.9,0,0,1,0-7.8h74.83a3.9,3.9,0,1,1,0,7.8ZM53.73,45.32a8.54,8.54,0,1,0,8.54,8.54,8.54,8.54,0,0,0-8.54-8.54m0-8.1A16.64,16.64,0,1,1,37.09,53.86,16.66,16.66,0,0,1,53.73,37.22Z"/><path class="cls-1" d="M82.8,102.8H12.38a3.45,3.45,0,1,1,0-6.89H82.8a3.45,3.45,0,1,1,0,6.89Z"/><path class="cls-1" d="M95.43,90.48A8.54,8.54,0,1,1,86.89,99a8.55,8.55,0,0,1,8.54-8.54m0-8.1A16.64,16.64,0,1,0,112.07,99,16.66,16.66,0,0,0,95.43,82.38Z"/></g></g></svg>