<?xml version="1.0" standalone="no"?>
<!DOCTYPE svg PUBLIC "-//W3C//DTD SVG 20010904//EN"
 "http://www.w3.org/TR/2001/REC-SVG-20010904/DTD/svg10.dtd">
<svg version="1.0" xmlns="http://www.w3.org/2000/svg"
 width="455.000000pt" height="455.000000pt" viewBox="0 0 455.000000 455.000000"
 preserveAspectRatio="xMidYMid meet">
<metadata>
Created by potrace 1.14, written by Peter Selinger 2001-2017
</metadata>
<g transform="translate(0.000000,455.000000) scale(0.100000,-0.100000)"
fill="#000000" stroke="none">
<path d="M2187 4544 c-1 -1 -42 -4 -92 -8 -49 -3 -99 -7 -110 -10 -11 -2 -42
-7 -70 -10 -268 -36 -637 -180 -884 -345 -345 -230 -633 -559 -801 -916 -106
-225 -185 -492 -205 -695 -2 -19 -7 -55 -10 -79 -8 -52 -8 -360 -1 -411 3 -19
8 -57 11 -85 44 -381 211 -783 455 -1097 391 -502 960 -816 1585 -875 92 -9
319 -9 420 0 77 7 96 9 175 23 19 3 49 8 65 11 60 9 249 64 341 99 719 269
1257 883 1424 1624 23 101 24 109 44 269 13 103 14 405 2 469 -4 18 -8 50 -10
70 -16 153 -75 381 -136 527 -7 17 -14 35 -16 42 -6 31 -130 264 -186 351
-385 595 -1023 981 -1718 1038 -74 6 -278 12 -283 8z m387 -268 c581 -93 1069
-405 1393 -891 52 -78 189 -333 181 -336 -2 -1 -461 -2 -1020 -3 l-1018 -1
-22 55 c-84 212 -268 333 -494 325 -220 -8 -410 -166 -460 -382 -40 -173 10
-345 138 -473 139 -139 346 -179 542 -104 122 47 244 185 290 327 5 16 65 17
1066 17 583 0 1060 -2 1060 -4 0 -2 7 -31 15 -63 8 -32 16 -69 18 -83 3 -14 8
-45 12 -70 4 -25 10 -54 12 -65 12 -50 11 -415 -2 -510 -126 -927 -854 -1644
-1780 -1753 -115 -13 -444 -6 -545 12 -652 117 -1171 489 -1473 1056 -25 47
-48 95 -51 106 l-7 22 977 -2 978 -1 7 -27 c14 -53 60 -134 104 -185 184 -210
510 -227 714 -37 236 219 207 601 -59 780 -209 140 -480 107 -653 -81 -39 -43
-77 -108 -102 -178 l-22 -60 -1014 0 -1014 0 -13 44 c-15 51 -15 51 -35 149
-22 106 -26 126 -34 205 -9 84 -9 348 1 425 13 107 17 135 28 180 5 25 12 59
15 75 12 72 97 304 152 417 99 202 212 361 374 527 332 339 779 556 1232 597
39 4 72 8 74 10 10 9 350 -7 435 -20z m-854 -1117 c200 -90 204 -360 6 -461
-91 -47 -213 -24 -289 55 -64 65 -88 186 -54 268 54 129 213 194 337 138z
m1260 -1359 c193 -99 190 -364 -5 -456 -101 -48 -223 -21 -298 67 -120 140
-49 358 133 409 43 12 126 2 170 -20z"/>
</g>
</svg>
